<?xml version="1.0" encoding="UTF-8" standalone="no"?>
<!DOCTYPE svg PUBLIC "-//W3C//DTD SVG 1.1//EN" "http://www.w3.org/Graphics/SVG/1.1/DTD/svg11.dtd">
<svg width="100%" height="100%" viewBox="0 0 16 16" version="1.1" xmlns="http://www.w3.org/2000/svg" xmlns:xlink="http://www.w3.org/1999/xlink" xml:space="preserve" xmlns:serif="http://www.serif.com/" style="fill-rule:evenodd;clip-rule:evenodd;stroke-linejoin:round;stroke-miterlimit:2;">
    <g id="Layer-1" serif:id="Layer 1">
        <path id="path3497" d="M5.281,3L5.281,5.563C5.215,5.501 5.166,5.428 5.094,5.375C4.79,5.156 4.458,4.986 4.094,4.906C3.753,4.832 3.37,4.813 2.969,4.813C2.618,4.813 2.289,4.843 1.938,4.906C1.625,4.962 1.37,5.034 1.156,5.094L0.406,5.281L0.406,7.875L0.563,7.875C0.511,7.94 0.419,7.96 0.375,8.031C0.113,8.452 -0,8.95 0,9.438C-0,9.783 0.055,10.118 0.188,10.438C0.314,10.743 0.51,11.045 0.75,11.281C0.985,11.508 1.261,11.69 1.563,11.813C1.871,11.937 2.231,12 2.563,12C2.872,12 3.141,11.992 3.438,11.906C3.46,11.9 3.478,11.882 3.5,11.875L7.625,11.875C7.89,11.94 8.156,12 8.438,12C9.316,12 10.156,11.587 10.719,10.906C10.758,10.859 10.776,10.799 10.813,10.75C10.89,10.855 10.971,10.971 11.063,11.063C11.378,11.38 11.765,11.599 12.188,11.75C12.599,11.897 13.05,11.969 13.5,11.969C13.723,11.969 13.914,11.978 14.125,11.938C14.277,11.909 14.426,11.86 14.594,11.813C14.761,11.77 14.899,11.726 15.063,11.656C15.195,11.6 15.312,11.542 15.406,11.5L16,11.219L16,8.656L14.563,8.656L14.281,8.906C14.168,9.009 14.037,9.116 13.875,9.188C13.747,9.244 13.617,9.25 13.469,9.25C13.239,9.25 13.236,9.256 13.156,9.156C13.078,9.059 13,8.839 13,8.406C13,7.964 13.109,7.751 13.188,7.656C13.285,7.539 13.267,7.531 13.469,7.531C13.52,7.531 13.601,7.539 13.688,7.563C13.8,7.593 13.86,7.633 13.906,7.656L13.938,7.656C14.044,7.709 14.109,7.75 14.156,7.781C14.235,7.834 14.287,7.885 14.313,7.906L14.594,8.125L16,8.125L16,5.563L15.438,5.313C15.173,5.183 14.9,5.058 14.594,4.969C14.24,4.865 13.871,4.813 13.5,4.813C13.043,4.813 12.577,4.9 12.156,5.063C11.733,5.226 11.341,5.482 11.031,5.813C10.991,5.856 10.975,5.923 10.938,5.969C10.916,5.937 10.898,5.906 10.875,5.875C10.377,5.207 9.553,4.813 8.719,4.813C8.516,4.813 8.323,4.899 8.125,4.938L8.125,3L5.281,3ZM8.531,7.563C8.568,7.622 8.687,7.892 8.688,8.375C8.687,8.893 8.555,9.128 8.531,9.156C8.466,9.235 8.493,9.25 8.281,9.25C8.217,9.25 8.176,9.256 8.125,9.25L8.125,7.688C8.147,7.677 8.164,7.667 8.188,7.656C8.316,7.599 8.415,7.594 8.5,7.594C8.55,7.594 8.525,7.569 8.531,7.563Z" style="fill:rgb(241,103,34);fill-opacity:0.67;fill-rule:nonzero;"/>
        <path id="text3456" d="M13.49,10.974C13.139,10.974 12.818,10.921 12.525,10.817C12.232,10.713 11.98,10.555 11.77,10.343C11.559,10.131 11.396,9.864 11.28,9.542C11.164,9.22 11.107,8.842 11.107,8.406C11.107,7.974 11.167,7.601 11.287,7.286C11.408,6.971 11.569,6.707 11.77,6.492C11.971,6.277 12.222,6.112 12.523,5.996C12.823,5.88 13.146,5.822 13.49,5.822C13.771,5.822 14.041,5.86 14.302,5.936C14.563,6.013 14.796,6.101 15,6.201L15,7.132L14.95,7.132C14.889,7.082 14.81,7.024 14.714,6.96C14.618,6.895 14.501,6.829 14.364,6.761C14.245,6.702 14.105,6.651 13.943,6.607C13.781,6.563 13.626,6.541 13.476,6.541C13.031,6.541 12.674,6.703 12.404,7.028C12.134,7.353 11.999,7.812 11.999,8.406C11.999,8.989 12.129,9.442 12.39,9.767C12.651,10.092 13.013,10.255 13.476,10.255C13.757,10.255 14.024,10.199 14.277,10.087C14.53,9.975 14.754,9.831 14.95,9.655L15,9.655L15,10.585C14.915,10.624 14.808,10.67 14.68,10.724C14.552,10.779 14.436,10.819 14.332,10.846C14.186,10.887 14.054,10.918 13.939,10.94C13.823,10.963 13.673,10.974 13.49,10.974Z" style="fill:rgb(46,52,54);fill-rule:nonzero;"/>
        <path id="path3482" d="M4.212,9.65L4.212,8.283C4.007,8.301 3.749,8.325 3.436,8.356C3.124,8.387 2.871,8.43 2.679,8.486C2.45,8.553 2.261,8.657 2.112,8.797C1.962,8.936 1.888,9.131 1.888,9.381C1.888,9.664 1.97,9.877 2.135,10.021C2.299,10.165 2.54,10.237 2.858,10.237C3.129,10.237 3.375,10.18 3.594,10.067C3.814,9.954 4.02,9.815 4.212,9.65ZM4.212,10.338C4.142,10.388 4.048,10.458 3.93,10.548C3.813,10.638 3.699,10.709 3.59,10.762C3.437,10.838 3.29,10.897 3.148,10.938C3.006,10.979 2.807,11 2.551,11C2.341,11 2.141,10.962 1.952,10.885C1.763,10.809 1.596,10.702 1.453,10.563C1.316,10.428 1.206,10.261 1.124,10.063C1.041,9.864 1,9.655 1,9.434C1,9.093 1.075,8.803 1.224,8.563C1.374,8.323 1.61,8.133 1.933,7.992C2.22,7.865 2.559,7.778 2.949,7.729C3.339,7.681 3.76,7.645 4.212,7.621L4.212,7.463C4.212,7.268 4.181,7.112 4.12,6.993C4.059,6.874 3.974,6.782 3.864,6.717C3.754,6.649 3.62,6.605 3.461,6.583C3.303,6.56 3.14,6.549 2.972,6.549C2.774,6.549 2.54,6.578 2.272,6.635C2.003,6.693 1.735,6.776 1.467,6.885L1.416,6.885L1.416,6.042C1.575,5.998 1.802,5.95 2.098,5.897C2.394,5.844 2.687,5.817 2.976,5.817C3.327,5.817 3.623,5.844 3.864,5.897C4.105,5.95 4.322,6.045 4.514,6.183C4.7,6.319 4.839,6.494 4.93,6.708C5.022,6.923 5.067,7.185 5.067,7.493L5.067,10.863L4.212,10.863L4.212,10.338Z" style="fill:rgb(46,52,54);fill-rule:nonzero;"/>
        <path id="path3478" d="M9.679,8.384C9.679,7.796 9.586,7.35 9.4,7.046C9.214,6.741 8.915,6.589 8.503,6.589C8.268,6.589 8.031,6.642 7.792,6.748C7.552,6.854 7.335,6.988 7.14,7.149L7.14,9.972C7.356,10.075 7.549,10.148 7.716,10.191C7.884,10.233 8.069,10.255 8.27,10.255C8.709,10.255 9.054,10.105 9.304,9.805C9.554,9.505 9.679,9.031 9.679,8.384ZM10.567,8.318C10.567,9.124 10.364,9.772 9.958,10.263C9.552,10.754 9.045,11 8.435,11C8.157,11 7.92,10.967 7.723,10.901C7.526,10.835 7.332,10.746 7.14,10.634L7.085,10.863L6.28,10.863L6.28,4L7.14,4L7.14,6.452C7.356,6.264 7.591,6.108 7.844,5.985C8.098,5.861 8.384,5.8 8.705,5.8C9.281,5.8 9.736,6.022 10.068,6.468C10.4,6.913 10.567,7.53 10.567,8.318Z" style="fill:rgb(46,52,54);fill-rule:nonzero;"/>
    </g>
</svg>
