<?xml version="1.0" encoding="UTF-8" standalone="no"?>
<!DOCTYPE svg PUBLIC "-//W3C//DTD SVG 1.1//EN" "http://www.w3.org/Graphics/SVG/1.1/DTD/svg11.dtd">
<svg width="100%" height="100%" viewBox="0 0 80 80" version="1.1" xmlns="http://www.w3.org/2000/svg" xmlns:xlink="http://www.w3.org/1999/xlink" xml:space="preserve" xmlns:serif="http://www.serif.com/" style="fill-rule:evenodd;clip-rule:evenodd;stroke-linejoin:round;stroke-miterlimit:2;">
    <path d="M22,10C19.793,10 18,11.793 18,14L18,58C18,60.207 19.793,62 22,62L66,62C68.207,62 70,60.207 70,58L70,24.363L68,26.363L68,58C68,59.102 67.102,60 66,60L22,60C20.898,60 20,59.102 20,58L20,14C20,12.898 20.898,12 22,12L66,12C66.988,12 67.809,12.727 67.969,13.672L69.512,12.125C68.836,10.867 67.523,10 66,10L22,10ZM70.438,15.438L41.938,43.941L32.563,34.57L30.438,36.691L41.938,48.188L72.563,17.563L70.438,15.438ZM26,17C25.449,17 25,17.449 25,18C25,18.551 25.449,19 26,19C26.551,19 27,18.551 27,18C27,17.449 26.551,17 26,17ZM30,17C29.449,17 29,17.449 29,18C29,18.551 29.449,19 30,19C30.551,19 31,18.551 31,18C31,17.449 30.551,17 30,17ZM34,17C33.449,17 33,17.449 33,18C33,18.551 33.449,19 34,19C34.551,19 35,18.551 35,18C35,17.449 34.551,17 34,17ZM38,17C37.449,17 37,17.449 37,18C37,18.551 37.449,19 38,19C38.551,19 39,18.551 39,18C39,17.449 38.551,17 38,17ZM42,17C41.449,17 41,17.449 41,18C41,18.551 41.449,19 42,19C42.551,19 43,18.551 43,18C43,17.449 42.551,17 42,17ZM46,17C45.449,17 45,17.449 45,18C45,18.551 45.449,19 46,19C46.551,19 47,18.551 47,18C47,17.449 46.551,17 46,17ZM50,17C49.449,17 49,17.449 49,18C49,18.551 49.449,19 50,19C50.551,19 51,18.551 51,18C51,17.449 50.551,17 50,17ZM54,17C53.449,17 53,17.449 53,18C53,18.551 53.449,19 54,19C54.551,19 55,18.551 55,18C55,17.449 54.551,17 54,17ZM58,17C57.449,17 57,17.449 57,18C57,18.551 57.449,19 58,19C58.551,19 59,18.551 59,18C59,17.449 58.551,17 58,17ZM62,17C61.449,17 61,17.449 61,18C61,18.551 61.449,19 62,19C62.551,19 63,18.551 63,18C63,17.449 62.551,17 62,17ZM14,18C11.801,18 10,19.801 10,22L10,66C10,68.199 11.801,70 14,70L58,70C60.199,70 62,68.199 62,66L62,64L60,64L60,66C60,67.117 59.117,68 58,68L14,68C12.883,68 12,67.117 12,66L12,22C12,20.883 12.883,20 14,20L16,20L16,18L14,18ZM26,21C25.449,21 25,21.449 25,22C25,22.551 25.449,23 26,23C26.551,23 27,22.551 27,22C27,21.449 26.551,21 26,21ZM26,25C25.449,25 25,25.449 25,26C25,26.551 25.449,27 26,27C26.551,27 27,26.551 27,26C27,25.449 26.551,25 26,25ZM26,29C25.449,29 25,29.449 25,30C25,30.551 25.449,31 26,31C26.551,31 27,30.551 27,30C27,29.449 26.551,29 26,29ZM26,33C25.449,33 25,33.449 25,34C25,34.551 25.449,35 26,35C26.551,35 27,34.551 27,34C27,33.449 26.551,33 26,33ZM62,33C61.449,33 61,33.449 61,34C61,34.551 61.449,35 62,35C62.551,35 63,34.551 63,34C63,33.449 62.551,33 62,33ZM26,37C25.449,37 25,37.449 25,38C25,38.551 25.449,39 26,39C26.551,39 27,38.551 27,38C27,37.449 26.551,37 26,37ZM62,37C61.449,37 61,37.449 61,38C61,38.551 61.449,39 62,39C62.551,39 63,38.551 63,38C63,37.449 62.551,37 62,37ZM26,41C25.449,41 25,41.449 25,42C25,42.551 25.449,43 26,43C26.551,43 27,42.551 27,42C27,41.449 26.551,41 26,41ZM62,41C61.449,41 61,41.449 61,42C61,42.551 61.449,43 62,43C62.551,43 63,42.551 63,42C63,41.449 62.551,41 62,41ZM26,45C25.449,45 25,45.449 25,46C25,46.551 25.449,47 26,47C26.551,47 27,46.551 27,46C27,45.449 26.551,45 26,45ZM62,45C61.449,45 61,45.449 61,46C61,46.551 61.449,47 62,47C62.551,47 63,46.551 63,46C63,45.449 62.551,45 62,45ZM26,49C25.449,49 25,49.449 25,50C25,50.551 25.449,51 26,51C26.551,51 27,50.551 27,50C27,49.449 26.551,49 26,49ZM62,49C61.449,49 61,49.449 61,50C61,50.551 61.449,51 62,51C62.551,51 63,50.551 63,50C63,49.449 62.551,49 62,49ZM26,53C25.449,53 25,53.449 25,54C25,54.551 25.449,55 26,55C26.551,55 27,54.551 27,54C27,53.449 26.551,53 26,53ZM30,53C29.449,53 29,53.449 29,54C29,54.551 29.449,55 30,55C30.551,55 31,54.551 31,54C31,53.449 30.551,53 30,53ZM34,53C33.449,53 33,53.449 33,54C33,54.551 33.449,55 34,55C34.551,55 35,54.551 35,54C35,53.449 34.551,53 34,53ZM38,53C37.449,53 37,53.449 37,54C37,54.551 37.449,55 38,55C38.551,55 39,54.551 39,54C39,53.449 38.551,53 38,53ZM42,53C41.449,53 41,53.449 41,54C41,54.551 41.449,55 42,55C42.551,55 43,54.551 43,54C43,53.449 42.551,53 42,53ZM46,53C45.449,53 45,53.449 45,54C45,54.551 45.449,55 46,55C46.551,55 47,54.551 47,54C47,53.449 46.551,53 46,53ZM50,53C49.449,53 49,53.449 49,54C49,54.551 49.449,55 50,55C50.551,55 51,54.551 51,54C51,53.449 50.551,53 50,53ZM54,53C53.449,53 53,53.449 53,54C53,54.551 53.449,55 54,55C54.551,55 55,54.551 55,54C55,53.449 54.551,53 54,53ZM58,53C57.449,53 57,53.449 57,54C57,54.551 57.449,55 58,55C58.551,55 59,54.551 59,54C59,53.449 58.551,53 58,53ZM62,53C61.449,53 61,53.449 61,54C61,54.551 61.449,55 62,55C62.551,55 63,54.551 63,54C63,53.449 62.551,53 62,53Z" style="fill:white;fill-rule:nonzero;"/>
</svg>
