<?xml version="1.0" encoding="UTF-8" standalone="no"?>
<!DOCTYPE svg PUBLIC "-//W3C//DTD SVG 1.1//EN" "http://www.w3.org/Graphics/SVG/1.1/DTD/svg11.dtd">
<svg width="100%" height="100%" viewBox="0 0 16 16" version="1.1" xmlns="http://www.w3.org/2000/svg" xmlns:xlink="http://www.w3.org/1999/xlink" xml:space="preserve" xmlns:serif="http://www.serif.com/" style="fill-rule:evenodd;clip-rule:evenodd;stroke-linejoin:round;stroke-miterlimit:2;">
    <g id="Air-Play" serif:id="Air Play" transform="matrix(0.558437,7.5716e-32,-6.88327e-33,0.558437,-16.1473,-57.7043)">
        <path d="M43.449,119.306L51.1,127.839C51.343,128.083 51.17,128.5 50.826,128.5L35.525,128.5C35.18,128.5 35.008,128.083 35.251,127.839L42.902,119.306C43.053,119.155 43.298,119.155 43.449,119.306ZM52.883,107.787C54.244,107.787 55.351,108.894 55.351,110.256L55.351,120.604C55.351,121.965 54.244,123.072 52.883,123.072L48.751,123.072L47.32,121.477L52.883,121.477C53.364,121.477 53.755,121.085 53.755,120.604L53.755,110.256C53.755,109.775 53.364,109.383 52.883,109.383L33.468,109.383C32.987,109.383 32.596,109.775 32.596,110.256L32.596,120.604C32.596,121.085 32.987,121.477 33.468,121.477L39.031,121.477L37.6,123.072L33.468,123.072C32.107,123.072 31,121.965 31,120.604L31,110.256C31,108.894 32.107,107.787 33.468,107.787L52.883,107.787Z" style="fill:rgb(255,178,0);"/>
    </g>
    <g id="Layer1">
    </g>
</svg>
