<?xml version="1.0" encoding="UTF-8" standalone="no"?>
<!DOCTYPE svg PUBLIC "-//W3C//DTD SVG 1.1//EN" "http://www.w3.org/Graphics/SVG/1.1/DTD/svg11.dtd">
<svg width="100%" height="100%" viewBox="0 0 16 16" version="1.1" xmlns="http://www.w3.org/2000/svg" xmlns:xlink="http://www.w3.org/1999/xlink" xml:space="preserve" xmlns:serif="http://www.serif.com/" style="fill-rule:evenodd;clip-rule:evenodd;stroke-linejoin:round;stroke-miterlimit:2;">
    <g id="Forward" transform="matrix(-0.576641,7.06181e-17,-7.06181e-17,-0.576641,175.85,178.155)">
        <path d="M279,287.832C279,287.187 279.627,286.789 280.122,287.118L290.883,294.286C290.958,294.337 291.018,294.402 291.07,294.472L291.07,287.853C291.07,287.204 291.705,286.805 292.2,287.143L302.645,294.291C303.118,294.615 303.118,295.385 302.645,295.709L292.2,302.856C291.705,303.194 291.07,302.796 291.07,302.147L291.07,295.528C291.018,295.598 290.958,295.662 290.883,295.714L280.122,302.882C279.627,303.212 279,302.812 279,302.167L279,287.832Z" style="fill:rgb(255,178,0);"/>
    </g>
    <g id="Timer" transform="matrix(0.242817,3.89083e-32,-2.99295e-33,0.242817,-16.7528,-4.05165)">
        <path d="M119.308,19.011C126.986,19.677 133,26.251 133,33.978C133,38.249 131.175,42.332 127.994,45.182C125.236,47.651 121.655,49 117.964,49C117.401,49 116.835,48.968 116.269,48.905C109.502,48.144 103.973,42.685 103.122,35.924C102.534,31.244 104.091,26.662 107.394,23.354C107.94,22.807 108.825,22.807 109.372,23.354C109.917,23.902 109.917,24.788 109.37,25.335C106.684,28.027 105.417,31.758 105.898,35.575C106.589,41.067 111.081,45.502 116.582,46.121C120.116,46.522 123.507,45.444 126.13,43.094C128.718,40.776 130.203,37.454 130.203,33.978C130.203,27.803 125.484,22.533 119.398,21.834L119.398,25.934C119.398,26.708 118.772,27.335 118,27.335C117.228,27.335 116.602,26.708 116.602,25.934L116.602,21.487C116.602,20.794 116.894,20.128 117.404,19.659C117.918,19.188 118.615,18.945 119.308,19.011ZM115.319,35.184L110.798,27.362C110.686,27.168 110.903,26.952 111.096,27.064L118.903,31.591C120.606,32.579 120.898,34.469 119.625,35.905C118.193,37.179 116.302,36.886 115.319,35.184Z"/>
    </g>
    <g id="Layer1">
    </g>
</svg>
