<?xml version="1.0" encoding="UTF-8" standalone="no"?>
<svg
   viewBox="0 0 48 48"
   version="1.1"
   id="svg5687"
   sodipodi:docname="log.svg"
   inkscape:version="1.1 (c68e22c387, 2021-05-23)"
   xmlns:inkscape="http://www.inkscape.org/namespaces/inkscape"
   xmlns:sodipodi="http://sodipodi.sourceforge.net/DTD/sodipodi-0.dtd"
   xmlns:xlink="http://www.w3.org/1999/xlink"
   xmlns="http://www.w3.org/2000/svg"
   xmlns:svg="http://www.w3.org/2000/svg">
  <sodipodi:namedview
     id="namedview5689"
     pagecolor="#ffffff"
     bordercolor="#666666"
     borderopacity="1.0"
     inkscape:pageshadow="2"
     inkscape:pageopacity="0.0"
     inkscape:pagecheckerboard="0"
     showgrid="false"
     inkscape:snap-global="false"
     inkscape:zoom="15.6875"
     inkscape:cx="24"
     inkscape:cy="24"
     inkscape:window-width="2880"
     inkscape:window-height="1557"
     inkscape:window-x="-8"
     inkscape:window-y="-8"
     inkscape:window-maximized="1"
     inkscape:current-layer="svg5687" />
  <defs
     id="defs5505">
    <linearGradient
       inkscape:collect="always"
       id="linearGradient5908">
      <stop
         style="stop-color:#000000;stop-opacity:1;"
         offset="0"
         id="stop5904" />
      <stop
         style="stop-color:#000000;stop-opacity:0;"
         offset="1"
         id="stop5906" />
    </linearGradient>
    <style
       id="style5460">.cls-1,.cls-17,.cls-4{fill:none;}.cls-2{isolation:isolate;}.cls-3{fill:url(#radial-gradient);}.cls-4{stroke:#683f09;stroke-miterlimit:10;stroke-width:1.4px;}.cls-5{fill:url(#linear-gradient);}.cls-6{fill:url(#linear-gradient-2);}.cls-7{fill:#683f09;}.cls-8{clip-path:url(#clip-path);}.cls-9{mix-blend-mode:multiply;opacity:0.6;}.cls-10{fill:#7b4706;}.cls-11{fill:url(#linear-gradient-3);}.cls-12{fill:url(#linear-gradient-4);}.cls-13{opacity:0.53;}.cls-14{fill:url(#linear-gradient-5);}.cls-15{fill:url(#linear-gradient-6);}.cls-16{fill:url(#linear-gradient-7);}.cls-17{stroke:#4e9a06;stroke-linecap:round;stroke-linejoin:round;stroke-width:0.7px;}.cls-18{fill:#8ae234;}.cls-19{fill:url(#linear-gradient-8);}.cls-20{fill:#4e9a06;}.cls-21{fill:url(#linear-gradient-9);}</style>
    <radialGradient
       id="radial-gradient"
       cx="2.33"
       cy="0.27"
       r="21.3"
       gradientTransform="matrix(1.06,0.47,-0.19,0.43,21.1,29.51)"
       gradientUnits="userSpaceOnUse">
      <stop
         offset="0.17"
         stop-color="#212121"
         stop-opacity="0.5"
         id="stop5462" />
      <stop
         offset="0.52"
         stop-color="#212121"
         stop-opacity="0.21"
         id="stop5464" />
      <stop
         offset="0.95"
         stop-color="#212121"
         stop-opacity="0"
         id="stop5466" />
    </radialGradient>
    <linearGradient
       id="linear-gradient"
       x1="26.73"
       y1="13.48"
       x2="18.25"
       y2="28.94"
       gradientUnits="userSpaceOnUse">
      <stop
         offset="0"
         stop-color="#e9b96e"
         id="stop5469" />
      <stop
         offset="1"
         stop-color="#8f5902"
         id="stop5471" />
    </linearGradient>
    <linearGradient
       id="linear-gradient-2"
       x1="24.08"
       y1="16.07"
       x2="18.48"
       y2="27.58"
       gradientUnits="userSpaceOnUse">
      <stop
         offset="0"
         stop-color="#c17d11"
         stop-opacity="0"
         id="stop5474" />
      <stop
         offset="1"
         stop-color="#683f09"
         id="stop5476" />
    </linearGradient>
    <clipPath
       id="clip-path">
      <path
         class="cls-1"
         d="M35.24,37.84s-3.38-1.45-4.48-2.14-4.49-3.28-4.49-3.28c-1.88-.83-3.51-1.16-4.6-1.76a43.68,43.68,0,0,1-3.81-2.85l-2.27-1.1-1.13-.39a29.49,29.49,0,0,1-2.73-1.17,31.16,31.16,0,0,0-3.1-2.35c-.92-.51-1.72-.67-2.77-1.25-2.38-1.32-2.8-5.12-.93-8.49s5.31-5,7.69-3.7c0,0,1.32.5,2,.66,0,0,1.81,1.4,2.28,1.69,0,0,2.52,1.13,3.71,1.63S22.8,15.12,24,15.67s1.87.8,1.87.8,3.72,2.65,4.56,3.12c0,0,4.24,1.46,4.63,1.66,0,0,1.38.83,1.89,1.22s1.29,1.09,1.29,1.09a10.27,10.27,0,0,1,1.67.79,22.27,22.27,0,0,0,2.15,1.33"
         id="path5479" />
    </clipPath>
    <linearGradient
       id="linear-gradient-3"
       x1="38.26"
       y1="39.74"
       x2="39.42"
       y2="14.31"
       gradientUnits="userSpaceOnUse">
      <stop
         offset="0"
         stop-color="#f3dab2"
         id="stop5482" />
      <stop
         offset="1"
         stop-color="#c17d11"
         id="stop5484" />
    </linearGradient>
    <linearGradient
       id="linear-gradient-4"
       x1="38.32"
       y1="30.98"
       x2="43.92"
       y2="45.13"
       gradientUnits="userSpaceOnUse">
      <stop
         offset="0.05"
         stop-color="#fff"
         stop-opacity="0"
         id="stop5487" />
      <stop
         offset="0.69"
         stop-color="#fff8f8"
         id="stop5489" />
    </linearGradient>
    <linearGradient
       id="linear-gradient-5"
       x1="21.07"
       y1="11.26"
       x2="23.26"
       y2="15.65"
       xlink:href="#linear-gradient" />
    <linearGradient
       id="linear-gradient-6"
       x1="22.38"
       y1="9.34"
       x2="22.76"
       y2="16.4"
       xlink:href="#linear-gradient-2" />
    <linearGradient
       id="linear-gradient-7"
       x1="25.15"
       y1="11.38"
       x2="28.19"
       y2="15.33"
       xlink:href="#linear-gradient-3" />
    <linearGradient
       id="linear-gradient-8"
       x1="31.14"
       y1="8.05"
       x2="32.22"
       y2="14.07"
       gradientUnits="userSpaceOnUse">
      <stop
         offset="0"
         stop-color="#4e9a06"
         id="stop5495" />
      <stop
         offset="1"
         stop-color="#8ae234"
         stop-opacity="0"
         id="stop5497" />
    </linearGradient>
    <linearGradient
       id="linear-gradient-9"
       x1="29.46"
       y1="7.28"
       x2="33.87"
       y2="13.77"
       gradientUnits="userSpaceOnUse">
      <stop
         offset="0.01"
         stop-color="snow"
         id="stop5500" />
      <stop
         offset="1"
         stop-color="#fff"
         stop-opacity="0"
         id="stop5502" />
    </linearGradient>
    <linearGradient
       inkscape:collect="always"
       xlink:href="#linear-gradient"
       id="linearGradient5748"
       gradientUnits="userSpaceOnUse"
       x1="26.73"
       y1="13.48"
       x2="18.25"
       y2="28.94" />
    <linearGradient
       inkscape:collect="always"
       xlink:href="#linear-gradient-2"
       id="linearGradient5750"
       gradientUnits="userSpaceOnUse"
       x1="24.08"
       y1="16.07"
       x2="18.48"
       y2="27.58" />
    <linearGradient
       inkscape:collect="always"
       xlink:href="#linear-gradient-3"
       id="linearGradient5752"
       gradientUnits="userSpaceOnUse"
       x1="38.26"
       y1="39.74"
       x2="39.42"
       y2="14.31" />
    <radialGradient
       inkscape:collect="always"
       xlink:href="#linearGradient5908"
       id="radialGradient5910"
       cx="23.559562"
       cy="30.620378"
       fx="23.559562"
       fy="30.620378"
       r="22.062617"
       gradientTransform="matrix(1,0,0,0.59193701,0,12.495043)"
       gradientUnits="userSpaceOnUse" />
    <radialGradient
       inkscape:collect="always"
       xlink:href="#linearGradient5908"
       id="radialGradient6056"
       gradientUnits="userSpaceOnUse"
       gradientTransform="matrix(0.98449054,0.43510801,-0.17252768,0.39036715,5.648259,8.4162345)"
       cx="23.559563"
       cy="30.620378"
       fx="23.559563"
       fy="30.620378"
       r="22.062617" />
  </defs>
  <g
     id="shadow"
     style="isolation:isolate;fill:url(#radialGradient5910);fill-opacity:1;stroke-width:0.921461"
     transform="matrix(1.0852337,0,0,1.0852337,-1.4662355,-3.8505022)">
    <path
       class="cls-3"
       d="M 45.28,40.22 C 43.14,45.12 31.55,44.77 19.39,39.46 7.23,34.15 -0.28,25.85 1.86,21 4,16.15 14.98,16.45 27.14,21.77 39.3,27.09 47.42,35.33 45.28,40.22 Z"
       id="path5507"
       style="fill:url(#radialGradient6056);fill-opacity:1;stroke-width:0.921461" />
  </g>
  <g
     id="ART"
     style="isolation:isolate;stroke-width:0.921461"
     transform="matrix(1.0852337,0,0,1.0852337,-1.5299805,-2.1931317)">
    <ellipse
       class="cls-4"
       cx="38.619999"
       cy="31.75"
       rx="6.9699998"
       ry="4.9299998"
       transform="rotate(-60.99,38.625419,31.746638)"
       id="ellipse5510" />
    <path
       class="cls-4"
       d="m 35.24,37.84 c 0,0 -3.38,-1.45 -4.48,-2.14 -1.1,-0.69 -4.49,-3.28 -4.49,-3.28 -1.88,-0.83 -3.51,-1.16 -4.6,-1.76 a 43.68,43.68 0 0 1 -3.81,-2.85 l -2.27,-1.1 -1.13,-0.39 A 29.49,29.49 0 0 1 11.73,25.15 31.16,31.16 0 0 0 8.63,22.8 C 7.71,22.29 6.91,22.13 5.86,21.55 3.48,20.23 3.06,16.43 4.93,13.06 c 1.87,-3.37 5.31,-5 7.69,-3.7 0,0 1.32,0.5 2,0.66 0,0 1.81,1.4 2.28,1.69 0,0 2.52,1.13 3.71,1.63 1.19,0.5 2.19,1.78 3.39,2.33 1.2,0.55 1.87,0.8 1.87,0.8 0,0 3.72,2.65 4.56,3.12 0,0 4.24,1.46 4.63,1.66 0,0 1.38,0.83 1.89,1.22 0.51,0.39 1.29,1.09 1.29,1.09 a 10.27,10.27 0 0 1 1.67,0.79 22.27,22.27 0 0 0 2.15,1.33"
       id="path5512" />
    <path
       class="cls-5"
       d="m 35.24,37.84 c 0,0 -3.38,-1.45 -4.48,-2.14 -1.1,-0.69 -4.49,-3.28 -4.49,-3.28 -1.88,-0.83 -3.51,-1.16 -4.6,-1.76 a 43.68,43.68 0 0 1 -3.81,-2.85 l -2.27,-1.1 -1.13,-0.39 A 29.49,29.49 0 0 1 11.73,25.15 31.16,31.16 0 0 0 8.63,22.8 C 7.71,22.29 6.91,22.13 5.86,21.55 3.48,20.23 3.06,16.43 4.93,13.06 c 1.87,-3.37 5.31,-5 7.69,-3.7 0,0 1.32,0.5 2,0.66 0,0 1.81,1.4 2.28,1.69 0,0 2.52,1.13 3.71,1.63 1.19,0.5 2.19,1.78 3.39,2.33 1.2,0.55 1.87,0.8 1.87,0.8 0,0 3.72,2.65 4.56,3.12 0,0 4.24,1.46 4.63,1.66 0,0 1.38,0.83 1.89,1.22 0.51,0.39 1.29,1.09 1.29,1.09 a 10.27,10.27 0 0 1 1.67,0.79 22.27,22.27 0 0 0 2.15,1.33"
       id="path5514"
       style="fill:url(#linearGradient5748);stroke-width:0.921461" />
    <path
       class="cls-6"
       d="m 35,30.37 -0.25,6.08 -3.68,-1.9 a 28.63,28.63 0 0 1 -2.94,-3.12 c -1.22,-1.56 -4.77,-3.67 -5,-3.79 a 5,5 0 0 0 1.31,1.77 c 0.84,0.68 2,1.88 2.11,2 C 26.27,31.33 21.89,30.04 21.23,29.66 20.57,29.28 17,26.09 16.78,26 a 8.69,8.69 0 0 0 -3,-2.27 c -1.2,-0.65 -1.61,-0.44 -1.61,-0.44 a 15.2,15.2 0 0 1 2.65,2 L 12.41,24.44 8.91,22.27 A 16.44,16.44 0 0 0 5.27,20.5 1.91,1.91 0 0 1 4.41,20.06 7.17,7.17 0 0 1 4.56,13.82 L 6.87,15 a 10.78,10.78 0 0 0 1.89,0.34 17.39,17.39 0 0 1 3.18,1.3 c -0.2,0 -1.61,-0.35 -2,-0.44 0.45,0.2 2.42,1.58 2.86,1.81 a 12.21,12.21 0 0 0 2.95,0.42 c 0.23,0 2.89,1.84 1.89,1.37 a 16.2,16.2 0 0 0 -2.4,-0.8 7.83,7.83 0 0 1 2.54,1.86 11,11 0 0 0 4.09,2.37 l 3.59,2.36 1.85,2 a 20.5,20.5 0 0 1 3.2,1.41 c 0.67,0.28 4.49,1.37 4.49,1.37 z"
       id="path5516"
       style="fill:url(#linearGradient5750);stroke-width:0.921461" />
    <path
       class="cls-7"
       d="m 33.84,36.65 a 23.5,23.5 0 0 0 -3.27,-2 c -0.12,0 -2.43,-2.6 -2.56,-2.7 -0.13,-0.1 -2.6,-2.87 -2.6,-2.87 0,0 2.85,1.57 3.13,2.36 0.28,0.79 5.52,3.82 5.52,3.82"
       id="path5518"
       style="stroke-width:0.921461" />
    <g
       class="cls-8"
       clip-path="url(#clip-path)"
       id="g5598"
       style="stroke-width:0.921461">
      <g
         class="cls-9"
         id="g5596"
         style="stroke-width:0.921461">
        <path
           class="cls-10"
           d="m 18.41,21.7 c 0,0 0.15,0.11 0.48,0.31 a 10,10 0 0 0 1.55,0.71 24.3,24.3 0 0 1 2.45,1.43 l 1.58,1 a 14.28,14.28 0 0 1 1.62,1.35 l 0.79,0.77 A 2.8,2.8 0 0 0 27.73,28 l 1.8,0.66 c 1.1,0.39 2,0.76 2.81,1 a 11.48,11.48 0 0 0 1.79,0.46 3.23,3.23 0 0 0 0.62,0.06 4,4 0 0 1 -0.61,-0.13 16.56,16.56 0 0 1 -1.72,-0.61 C 31.68,29.12 30.77,28.7 29.67,28.27 l -1.76,-0.7 c -0.26,-0.1 -0.44,-0.36 -0.71,-0.64 -0.27,-0.28 -0.53,-0.52 -0.81,-0.78 a 13,13 0 0 0 -1.7,-1.38 l -1.61,-0.94 a 19.58,19.58 0 0 0 -2.56,-1.31 14,14 0 0 1 -1.6,-0.58 C 18.57,21.79 18.41,21.7 18.41,21.7 Z"
           id="path5520"
           style="stroke-width:0.921461" />
        <path
           class="cls-1"
           d="m 18.41,21.7 a 10.3,10.3 0 0 0 2.12,0.94 18.4,18.4 0 0 1 2,1.12 l 2,1.2 a 14.24,14.24 0 0 1 1.8,1.49 c 0.28,0.27 0.56,0.53 0.82,0.82 a 1.86,1.86 0 0 0 1,0.64 l 2.17,0.84 a 19.37,19.37 0 0 0 4.42,1.44"
           id="path5522"
           style="stroke-width:0.921461" />
        <path
           class="cls-10"
           d="m 21.42,25.64 a 15.21,15.21 0 0 0 1.51,0.93 c 0.26,0.15 0.55,0.31 0.89,0.47 a 5.89,5.89 0 0 1 1.05,0.55 18.92,18.92 0 0 1 2.33,2 13.4,13.4 0 0 0 1.25,1.15 13.46,13.46 0 0 0 1.3,0.76 c 0.4,0.21 0.75,0.43 1.12,0.61 a 6.56,6.56 0 0 0 1,0.37 8.36,8.36 0 0 1 1.78,0.68 c 0,0 -0.13,-0.1 -0.41,-0.27 A 7.37,7.37 0 0 0 32,32.27 7.72,7.72 0 0 1 31.06,31.83 L 29.99,31.17 C 29.6,30.93 29.16,30.7 28.76,30.4 a 14.85,14.85 0 0 1 -1.21,-1.12 15,15 0 0 0 -2.44,-2 5.85,5.85 0 0 0 -1.13,-0.52 C 23.64,26.63 23.34,26.5 23.07,26.38 Z"
           id="path5524"
           style="stroke-width:0.921461" />
        <path
           class="cls-1"
           d="m 21.42,25.64 a 27.91,27.91 0 0 0 3.24,1.61 15.68,15.68 0 0 1 2.79,2.29 8.53,8.53 0 0 0 1.36,1.19 c 0.51,0.33 1,0.61 1.56,0.92 1,0.7 2.26,0.84 3.28,1.52"
           id="path5526"
           style="stroke-width:0.921461" />
        <path
           class="cls-10"
           d="m 29.76,23.24 a 4.76,4.76 0 0 0 0.93,0.43 c 0.31,0.13 0.7,0.29 1.15,0.52 0.45,0.23 0.94,0.55 1.57,0.85 a 7.71,7.71 0 0 0 1.74,0.63 10.6,10.6 0 0 1 1.31,0.21 c 0.69,0.18 1.06,0.31 1.06,0.31 a 5.25,5.25 0 0 0 -1,-0.54 7,7 0 0 0 -1.29,-0.35 13.78,13.78 0 0 1 -1.65,-0.66 c -0.61,-0.28 -1.12,-0.59 -1.62,-0.78 a 11,11 0 0 0 -1.23,-0.39 c -0.64,-0.16 -0.98,-0.2 -0.97,-0.23 z"
           id="path5528"
           style="stroke-width:0.921461" />
        <path
           class="cls-1"
           d="m 29.76,23.24 c 0.64,0.25 1.32,0.42 2,0.7 0.68,0.28 1.23,0.65 1.86,0.93 a 7.73,7.73 0 0 0 2,0.68 6,6 0 0 1 2,0.64"
           id="path5530"
           style="stroke-width:0.921461" />
        <path
           class="cls-10"
           d="m 4.24,12.76 a 32,32 0 0 0 3.82,1.94 c 0.66,0.29 1.4,0.62 2.24,0.93 0.84,0.31 1.82,0.52 2.79,0.94 a 8.51,8.51 0 0 1 1.45,0.78 c 0.46,0.33 1,0.7 1.48,1 1.05,0.7 2.2,1.41 3.41,2.18 2.45,1.49 4.4,3.16 6.4,4.22 2,1.06 4,1 5.33,1.74 1.33,0.74 2.24,1.51 2.91,1.9 0.67,0.39 1,0.6 1,0.6 0,0 -0.34,-0.21 -1,-0.66 -0.66,-0.45 -1.53,-1.18 -2.84,-2 -1.31,-0.82 -3.35,-0.87 -5.26,-1.89 -1.91,-1.02 -3.87,-2.75 -6.34,-4.25 l -3.42,-2.15 c -0.53,-0.34 -1,-0.68 -1.5,-1 a 8.82,8.82 0 0 0 -1.52,-0.79 c -1,-0.41 -2,-0.61 -2.83,-0.88 C 9.53,15.1 8.77,14.79 8.1,14.52 A 42,42 0 0 1 4.24,12.76 Z"
           id="path5532"
           style="stroke-width:0.921461" />
        <path
           class="cls-1"
           d="M 4.24,12.76 C 15.62,16 24.21,24.92 35.09,29"
           id="path5534"
           style="stroke-width:0.921461" />
        <path
           class="cls-10"
           d="m 12.78,12.49 0.68,0.5 a 10.33,10.33 0 0 1 1.86,1.67 5.73,5.73 0 0 1 0.45,0.63 2,2 0 0 1 0.15,0.29 0.6,0.6 0 0 0 0.14,0.23 l 0.16,0.1 c 0.38,0.24 0.71,0.42 1,0.56 0.53,0.28 0.83,0.4 0.83,0.4 0,0 -0.23,-0.22 -0.71,-0.59 L 16.46,15.6 16.35,15.51 c 0,0 0,0 0,-0.08 A 2,2 0 0 0 16.18,15.07 3.89,3.89 0 0 0 15.7,14.38 6.05,6.05 0 0 0 13.61,12.82 5.41,5.41 0 0 0 12.78,12.49 Z"
           id="path5536"
           style="stroke-width:0.921461" />
        <path
           class="cls-1"
           d="m 12.78,12.49 a 8.55,8.55 0 0 1 2.75,2.09 4.27,4.27 0 0 1 0.49,0.71 c 0.08,0.12 0.08,0.29 0.2,0.38 l 0.35,0.25 1.46,1"
           id="path5538"
           style="stroke-width:0.921461" />
        <path
           class="cls-10"
           d="m 14.09,15 a 5.07,5.07 0 0 0 1.25,0.69 c 0.44,0.2 1,0.41 1.62,0.72 a 17,17 0 0 1 2.09,1.32 c 0.76,0.56 1.46,1 2.08,1.46 l 0.85,0.56 a 4.69,4.69 0 0 0 0.82,0.32 c 0.95,0.33 1.47,0.47 1.47,0.47 0,0 -0.47,-0.25 -1.39,-0.69 -0.2,-0.11 -0.52,-0.22 -0.72,-0.36 L 21.35,18.87 19.3,17.37 A 12.62,12.62 0 0 0 17.12,16.09 16.09,16.09 0 0 0 15.42,15.5 7.5,7.5 0 0 1 14.09,15 Z"
           id="path5540"
           style="stroke-width:0.921461" />
        <path
           class="cls-1"
           d="m 14.09,15 a 21.72,21.72 0 0 0 2.68,1.13 13.42,13.42 0 0 1 2.5,1.49 l 2.37,1.69 a 5.79,5.79 0 0 0 0.6,0.41 l 0.68,0.27 1.35,0.55"
           id="path5542"
           style="stroke-width:0.921461" />
        <path
           class="cls-10"
           d="m 19.92,18.06 a 9.5,9.5 0 0 0 1.07,0.61 c 0.37,0.19 0.83,0.41 1.4,0.64 0.57,0.23 1.28,0.41 2,0.79 0.72,0.38 1.34,0.74 1.89,1 a 6.22,6.22 0 0 0 1.45,0.74 c 0.84,0.23 1.29,0.32 1.29,0.32 0,0 -0.41,-0.2 -1.21,-0.54 A 9,9 0 0 1 26.48,20.77 19.73,19.73 0 0 0 24.59,19.65 15.31,15.31 0 0 0 22.52,19 l -1.45,-0.49 z"
           id="path5544"
           style="stroke-width:0.921461" />
        <path
           class="cls-1"
           d="m 19.92,18.06 a 22.13,22.13 0 0 0 2.3,1 22.13,22.13 0 0 1 2.34,0.9 c 1.5,0.73 2.78,1.88 4.44,2.26"
           id="path5546"
           style="stroke-width:0.921461" />
        <path
           class="cls-10"
           d="m 22.06,15 a 16.15,16.15 0 0 0 2,1.92 10.75,10.75 0 0 0 1.78,1.22 7.23,7.23 0 0 0 0.69,0.34 c 0,0 -0.19,-0.2 -0.55,-0.53 -0.36,-0.33 -0.92,-0.79 -1.63,-1.37 A 14.15,14.15 0 0 0 22.06,15 Z"
           id="path5548"
           style="stroke-width:0.921461" />
        <path
           class="cls-1"
           d="m 22.06,15 c 1.48,1.18 2.9,2.43 4.48,3.48"
           id="path5550"
           style="stroke-width:0.921461" />
        <path
           class="cls-10"
           d="m 24.67,18.47 a 9.16,9.16 0 0 0 1.27,1 18,18 0 0 0 4.29,2.07 c 1.95,0.76 3.38,1.59 4.44,2 1.06,0.41 1.61,0.59 1.61,0.59 0,0 -0.51,-0.3 -1.51,-0.8 A 35.87,35.87 0 0 0 30.39,21.15 28.38,28.38 0 0 1 26,19.24 c -0.89,-0.49 -1.33,-0.77 -1.33,-0.77 z"
           id="path5552"
           style="stroke-width:0.921461" />
        <path
           class="cls-1"
           d="m 24.67,18.47 a 21.38,21.38 0 0 0 5.76,2.86 29.85,29.85 0 0 1 2.93,1.36 c 0.94,0.52 1.94,0.92 2.92,1.37"
           id="path5554"
           style="stroke-width:0.921461" />
        <path
           class="cls-10"
           d="m 33,21.22 0.68,0.47 c 0.45,0.31 1.11,0.78 2.07,1.34 a 7.12,7.12 0 0 0 2.44,0.8 8.23,8.23 0 0 0 0.89,0.1 c 0,0 -0.29,-0.13 -0.83,-0.33 A 16,16 0 0 1 35.96,22.6 24,24 0 0 0 33.78,21.47 6.09,6.09 0 0 0 33,21.22 Z"
           id="path5556"
           style="stroke-width:0.921461" />
        <path
           class="cls-1"
           d="m 33,21.22 c 1,0.49 1.94,1.11 2.92,1.65 a 12.78,12.78 0 0 0 3.16,1.06"
           id="path5558"
           style="stroke-width:0.921461" />
        <path
           class="cls-10"
           d="m 16,14.07 a 4.92,4.92 0 0 0 -0.57,-1 5.7,5.7 0 0 0 -1,-1.06 c -0.23,-0.19 -0.48,-0.37 -0.7,-0.59 -0.22,-0.22 -0.07,-0.09 -0.08,-0.12 -0.01,-0.03 0,0 0.22,0.05 0.7,0.2 1.35,0.5 1.93,0.65 a 13,13 0 0 0 1.47,0.35 10,10 0 0 0 1.23,0.17 l -1.17,-0.39 -1.41,-0.5 c -0.57,-0.18 -1.15,-0.49 -1.94,-0.71 a 2.43,2.43 0 0 0 -0.35,-0.05 0.48,0.48 0 0 0 -0.42,0.14 c -0.21,0.24 0.15,0.64 0.23,0.7 a 6.46,6.46 0 0 0 0.77,0.58 7.78,7.78 0 0 1 1.07,0.91 9.4,9.4 0 0 1 0.72,0.87 z"
           id="path5560"
           style="stroke-width:0.921461" />
        <path
           class="cls-1"
           d="m 16,14.07 a 6,6 0 0 0 -1.51,-1.78 c -0.3,-0.26 -0.63,-0.46 -0.91,-0.74 a 1.3,1.3 0 0 1 -0.19,-0.22 c -0.06,-0.08 -0.07,-0.22 0,-0.24 a 1.28,1.28 0 0 1 0.58,0.06 28.2,28.2 0 0 0 4.48,1.36"
           id="path5562"
           style="stroke-width:0.921461" />
        <path
           class="cls-10"
           d="m 1.9,13.06 a 22.53,22.53 0 0 0 2.47,1.43 c 0.42,0.21 0.91,0.45 1.46,0.68 a 7.19,7.19 0 0 1 1.72,0.88 10.4,10.4 0 0 0 1,0.61 4.68,4.68 0 0 1 1,0.62 c 0.65,0.51 1.31,1.11 2,1.75 0.36,0.33 0.67,0.64 1,1 0.33,0.36 0.74,0.53 1.1,0.76 a 20.26,20.26 0 0 0 2.11,1.15 c 1.38,0.56 2.57,0.94 3.5,1.32 0.93,0.38 1.61,0.76 2.08,1 l 0.71,0.33 -0.68,-0.4 c -0.46,-0.25 -1.09,-0.67 -2,-1.12 -0.91,-0.45 -2.1,-0.87 -3.43,-1.45 -0.64,-0.32 -1.33,-0.72 -2,-1.17 a 12.45,12.45 0 0 1 -1,-0.74 c -0.32,-0.26 -0.67,-0.62 -1,-0.93 A 20,20 0 0 0 4.46,14.3 C 2.73,13.53 1.9,13.06 1.9,13.06 Z"
           id="path5564"
           style="stroke-width:0.921461" />
        <path
           class="cls-1"
           d="m 1.9,13.06 a 27.57,27.57 0 0 0 2.58,1.36 c 0.44,0.21 0.88,0.41 1.33,0.59 a 9.35,9.35 0 0 1 1.34,0.58 c 0.42,0.24 0.81,0.53 1.23,0.78 0.21,0.12 0.43,0.22 0.65,0.34 0.22,0.12 0.4,0.27 0.59,0.41 0.77,0.6 1.49,1.25 2.21,1.91 a 12.58,12.58 0 0 0 1.09,1 c 0.39,0.28 0.8,0.54 1.22,0.8 a 15,15 0 0 0 2.6,1.3 c 0.91,0.35 1.82,0.69 2.71,1.08 0.89,0.39 1.72,0.9 2.59,1.34"
           id="path5566"
           style="stroke-width:0.921461" />
        <path
           class="cls-10"
           d="m 2.3,15.25 0.37,0.2 1.16,0.55 a 8.83,8.83 0 0 1 1.76,1.18 17.9,17.9 0 0 0 2.31,2 c 2,1.17 3.72,1.76 4.68,2.49 a 4,4 0 0 0 1.69,0.8 4.77,4.77 0 0 1 -1.55,-1 A 30.18,30.18 0 0 0 8.13,18.78 23.48,23.48 0 0 1 5.81,16.9 7.28,7.28 0 0 0 3.92,15.82 Z"
           id="path5568"
           style="stroke-width:0.921461" />
        <path
           class="cls-1"
           d="m 2.3,15.25 a 14.08,14.08 0 0 1 3.12,1.58 26.1,26.1 0 0 0 2.72,2.22 c 1,0.59 2.09,1.07 3.12,1.63 1.03,0.56 1.86,1.46 3,1.78"
           id="path5570"
           style="stroke-width:0.921461" />
        <path
           class="cls-10"
           d="m 2.34,17.38 0.72,0.45 c 0.48,0.29 1.23,0.7 2.2,1.29 a 20.91,20.91 0 0 1 3.34,2.57 c 0.17,0.15 0.33,0.29 0.52,0.43 a 2.4,2.4 0 0 0 0.67,0.31 14,14 0 0 0 1.44,0.25 6,6 0 0 1 1.45,0.42 12.12,12.12 0 0 1 1.52,0.57 12.69,12.69 0 0 1 2.44,2 7,7 0 0 0 2.54,1.39 c 0.43,0.12 0.84,0.21 1.21,0.34 a 7.29,7.29 0 0 1 1,0.54 l 1.74,1 c 0.51,0.31 1,0.56 1.36,0.81 0.36,0.25 0.67,0.51 0.91,0.7 l 0.71,0.61 c 0,0 -0.22,-0.23 -0.67,-0.66 -0.22,-0.21 -0.5,-0.48 -0.86,-0.77 -0.36,-0.29 -0.82,-0.55 -1.32,-0.88 l -1.7,-1.1 a 6.34,6.34 0 0 0 -1,-0.6 C 20.16,26.89 19.74,26.8 19.34,26.66 A 6.56,6.56 0 0 1 16.96,25.32 C 16.58,25 16.22,24.63 15.83,24.26 a 4.7,4.7 0 0 0 -1.4,-1 A 12.62,12.62 0 0 0 12.86,22.68 6.45,6.45 0 0 0 11.33,22.26 12.78,12.78 0 0 1 9.94,22.05 2.52,2.52 0 0 1 8.88,21.41 19.36,19.36 0 0 0 5.4,18.93 Z"
           id="path5572"
           style="stroke-width:0.921461" />
        <path
           class="cls-1"
           d="m 2.34,17.38 c 1,0.59 2,1.1 3,1.69 a 19.38,19.38 0 0 1 2.82,2 6.39,6.39 0 0 0 1.37,1 8.12,8.12 0 0 0 1.7,0.33 7.58,7.58 0 0 1 1.67,0.48 8.85,8.85 0 0 1 1.61,0.64 c 1,0.58 1.7,1.56 2.65,2.23 a 6.24,6.24 0 0 0 1.51,0.85 c 0.53,0.23 1.11,0.33 1.65,0.52 a 9.8,9.8 0 0 1 1.51,0.86 l 1.48,0.91 a 12.55,12.55 0 0 1 1.45,1 c 0.45,0.36 0.88,0.75 1.3,1.15"
           id="path5574"
           style="stroke-width:0.921461" />
        <path
           class="cls-10"
           d="m 3.42,10.76 0.59,0.45 c 0.39,0.3 1,0.76 1.81,1.31 a 6.75,6.75 0 0 0 0.62,0.37 l 0.32,0.13 0.28,0.09 0.9,0.32 c 0.5,0.18 0.77,0.26 0.77,0.26 A 8.08,8.08 0 0 0 8,13.22 7.77,7.77 0 0 0 7.14,12.75 L 6.86,12.63 6.6,12.5 6.01,12.15 A 17.7,17.7 0 0 0 4.11,11 4.35,4.35 0 0 0 3.42,10.76 Z"
           id="path5576"
           style="stroke-width:0.921461" />
        <path
           class="cls-1"
           d="m 3.42,10.76 c 0.89,0.47 1.71,1.07 2.57,1.61 l 0.65,0.38 c 0.23,0.1 0.48,0.17 0.71,0.28 0.46,0.2 0.91,0.43 1.36,0.66"
           id="path5578"
           style="stroke-width:0.921461" />
        <path
           class="cls-10"
           d="m 5.14,10.12 a 11.62,11.62 0 0 0 1,0.71 15.73,15.73 0 0 0 3.16,1.76 c 0.76,0.29 1.43,0.49 2,0.74 a 13.22,13.22 0 0 0 1.43,0.64 12.12,12.12 0 0 0 1.23,0.39 l -1.13,-0.61 c -0.39,-0.2 -0.8,-0.44 -1.36,-0.77 a 14.18,14.18 0 0 0 -2,-0.8 33.86,33.86 0 0 1 -3.2,-1.53 z"
           id="path5580"
           style="stroke-width:0.921461" />
        <path
           class="cls-1"
           d="m 5.14,10.12 a 26,26 0 0 0 4.29,2.3 c 1.57,0.45 2.93,1.39 4.46,1.94"
           id="path5582"
           style="stroke-width:0.921461" />
        <path
           class="cls-10"
           d="m 8.88,10.23 a 4.17,4.17 0 0 1 0.66,0.51 c 0.2,0.18 0.42,0.45 0.77,0.73 a 8.86,8.86 0 0 0 1.32,0.76 14.94,14.94 0 0 0 2.47,0.88 c 0.57,0.17 0.89,0.23 0.89,0.23 0,0 -0.27,-0.17 -0.8,-0.44 -0.53,-0.27 -1.37,-0.59 -2.37,-1.07 -0.5,-0.25 -1,-0.44 -1.3,-0.65 -0.3,-0.21 -0.61,-0.46 -0.86,-0.61 A 2.4,2.4 0 0 0 8.88,10.23 Z"
           id="path5584"
           style="stroke-width:0.921461" />
        <path
           class="cls-1"
           d="m 8.88,10.23 a 5.65,5.65 0 0 1 1.4,1 8.56,8.56 0 0 0 1.51,0.84 12.41,12.41 0 0 0 1.6,0.64 l 1.6,0.64"
           id="path5586"
           style="stroke-width:0.921461" />
        <path
           class="cls-10"
           d="m 8.69,9.26 a 5.27,5.27 0 0 1 0.9,0.24 c 0.59,0.19 1.44,0.57 2.66,0.95 a 15.27,15.27 0 0 0 2.88,0.41 2.72,2.72 0 0 1 0.71,0.2 l 0.24,0.11 a 1.54,1.54 0 0 0 -0.2,-0.18 2.5,2.5 0 0 0 -0.69,-0.36 C 14.53,10.4 13.54,10.37 12.37,10.02 A 23.85,23.85 0 0 0 9.64,9.3 2.74,2.74 0 0 0 8.69,9.26 Z"
           id="path5588"
           style="stroke-width:0.921461" />
        <path
           class="cls-1"
           d="m 8.69,9.26 a 20.27,20.27 0 0 1 3.7,1 11.76,11.76 0 0 0 1.88,0.35 3.51,3.51 0 0 1 1.81,0.56"
           id="path5590"
           style="stroke-width:0.921461" />
        <path
           class="cls-10"
           d="m 18,13 -0.43,-0.2 a 7.12,7.12 0 0 0 -1.37,-0.53 1.14,1.14 0 0 0 -0.28,0 0.37,0.37 0 0 0 -0.31,0.19 0.86,0.86 0 0 0 0.09,0.66 3.61,3.61 0 0 0 0.8,1.13 16.38,16.38 0 0 0 2.7,2.11 11.38,11.38 0 0 0 3.22,1.37 l 0.36,0.09 h 0.19 0.29 c 0.39,0 0.56,-0.26 0.23,-0.5 -0.33,-0.24 -0.36,-0.35 -0.48,-0.49 -0.12,-0.14 -0.25,-0.27 -0.35,-0.4 a 2.51,2.51 0 0 1 -0.63,-1.36 1.18,1.18 0 0 1 0.09,-0.51 1.18,1.18 0 0 0 -0.17,0.51 2.54,2.54 0 0 0 0.52,1.49 q 0.15,0.23 0.33,0.45 l 0.33,0.38 c 0.11,0.12 -0.06,0.06 -0.61,-0.08 A 13.12,13.12 0 0 1 19.47,16 18.07,18.07 0 0 1 16.78,14 3.51,3.51 0 0 1 16,13 c -0.08,-0.16 -0.16,-0.36 -0.13,-0.43 0.03,-0.07 0.19,-0.09 0.34,-0.07 a 8.78,8.78 0 0 1 1.37,0.39 z"
           id="path5592"
           style="stroke-width:0.921461" />
        <path
           class="cls-1"
           d="m 18,13 a 12,12 0 0 0 -1.86,-0.64 c -0.15,0 -0.37,0 -0.43,0.15 a 0.86,0.86 0 0 0 0.09,0.47 3.1,3.1 0 0 0 0.55,0.82 14.93,14.93 0 0 0 3.11,2.42 11.24,11.24 0 0 0 3.66,1.44 h 0.24 c 0.08,0 0.2,-0.06 0.12,-0.14 L 23.13,17.17 A 5.78,5.78 0 0 1 22.5,16.41 1.87,1.87 0 0 1 22.12,14.57"
           id="path5594"
           style="stroke-width:0.921461" />
      </g>
    </g>
    <path
       class="cls-11"
       d="m 42,25.65 c -1.87,-1 -4.4,-0.24 -6.31,1.8 l 0.22,1.06 -0.58,-0.65 a 10,10 0 0 0 -0.92,1.32 L 35.23,30 34,29.9 c -1.54,3.22 -1,6.7 1.21,7.94 2.21,1.24 5.82,-0.34 7.69,-3.7 C 44.77,30.78 44.38,27 42,25.65 Z"
       id="path5600"
       style="fill:url(#linearGradient5752);stroke-width:0.921461" />
    <path
       class="cls-12"
       d="m 42,25.65 c -1.87,-1 -4.4,-0.24 -6.31,1.8 l 0.22,1.06 -0.58,-0.65 a 10,10 0 0 0 -0.92,1.32 L 35.23,30 34,29.9 c -1.54,3.22 -1,6.7 1.21,7.94 2.21,1.24 5.82,-0.34 7.69,-3.7 C 44.77,30.78 44.38,27 42,25.65 Z"
       id="path5602"
       style="fill:url(#linear-gradient-4);stroke-width:0.921461" />
    <path
       class="cls-7"
       d="m 41,37 -0.68,-0.72 c 0,0 0.24,1.19 0.23,1.19"
       id="path5604"
       style="stroke-width:0.921461" />
    <g
       class="cls-13"
       id="g5626"
       style="stroke-width:0.921461">
      <path
         class="cls-10"
         d="M 41.41,34.59 A 3.35,3.35 0 0 0 42,33.88 14.14,14.14 0 0 0 43.24,31.41 l 0.36,-0.9 a 3.23,3.23 0 0 0 0.31,-1.09 2.11,2.11 0 0 0 -0.3,-1.25 9.4,9.4 0 0 0 -0.85,-1 c -0.15,-0.18 -0.29,-0.35 -0.47,-0.55 a 1.38,1.38 0 0 0 -0.73,-0.4 3.34,3.34 0 0 0 -1.63,0.22 22.4,22.4 0 0 0 -3.06,1.66 3.1,3.1 0 0 0 -1.36,1.32 7.91,7.91 0 0 0 -0.65,1.6 c -0.17,0.53 -0.3,1.05 -0.43,1.54 a 5.5,5.5 0 0 0 -0.26,1.44 2.73,2.73 0 0 0 0.41,1.39 5.13,5.13 0 0 0 0.88,1 2.4,2.4 0 0 0 0.48,0.39 2.53,2.53 0 0 0 0.55,0.22 5.11,5.11 0 0 0 1,0.15 3.69,3.69 0 0 0 0.94,0 2.7,2.7 0 0 0 0.74,-0.38 11.17,11.17 0 0 0 1,-0.78 7.67,7.67 0 0 0 0.72,-0.7 8.09,8.09 0 0 1 -0.77,0.64 9.43,9.43 0 0 1 -1,0.71 2.81,2.81 0 0 1 -0.7,0.33 4.48,4.48 0 0 1 -0.88,0 2.66,2.66 0 0 1 -1.88,-0.76 2.78,2.78 0 0 1 -1.1,-2.21 4.87,4.87 0 0 1 0.27,-1.39 c 0.14,-0.49 0.28,-1 0.44,-1.52 a 4.08,4.08 0 0 1 1.8,-2.66 23.78,23.78 0 0 1 3,-1.66 2.89,2.89 0 0 1 1.41,-0.22 c 0.44,0.05 0.68,0.44 1,0.79 a 11.59,11.59 0 0 1 0.85,1 1.78,1.78 0 0 1 0.28,1.06 2.94,2.94 0 0 1 -0.25,1 l -0.33,0.92 a 14.66,14.66 0 0 1 -1.1,2.51 3.57,3.57 0 0 1 -0.52,0.76 z"
         id="path5606"
         style="stroke-width:0.921461" />
      <path
         class="cls-1"
         d="m 41.41,34.59 a 10.41,10.41 0 0 0 1.76,-3.3 9.29,9.29 0 0 0 0.59,-1.78 2.08,2.08 0 0 0 -0.63,-1.7 L 42.51,27.1 a 2.6,2.6 0 0 0 -0.69,-0.63 2.58,2.58 0 0 0 -1.83,0.12 30,30 0 0 0 -3.28,1.82 c -1.1,0.69 -1.46,2 -1.81,3.19 -0.16,0.61 -0.35,1.2 -0.48,1.82 a 2.68,2.68 0 0 0 0.26,1.82 5.86,5.86 0 0 0 1.32,1.36 3.78,3.78 0 0 0 1.81,0.44 1.79,1.79 0 0 0 0.92,-0.09 5.08,5.08 0 0 0 0.81,-0.48 12.7,12.7 0 0 0 1.43,-1.21"
         id="path5608"
         style="stroke-width:0.921461" />
      <path
         class="cls-10"
         d="M 42.12,32 A 3.29,3.29 0 0 0 42.52,31.36 5,5 0 0 0 43,29.17 1.57,1.57 0 0 0 42,27.8 c -0.32,-0.12 -0.59,-0.18 -1,-0.3 a 2,2 0 0 0 -1.14,0.15 8.85,8.85 0 0 0 -2.14,1.23 5.29,5.29 0 0 0 -1.72,2.25 11.59,11.59 0 0 0 -0.74,2.25 1.84,1.84 0 0 0 0,1.18 1.78,1.78 0 0 0 0.77,0.83 5.4,5.4 0 0 0 0.89,0.41 6.41,6.41 0 0 0 0.87,0.31 2,2 0 0 0 1.58,-0.52 8.28,8.28 0 0 0 2.21,-2.59 6,6 0 0 1 0.54,-1 4.32,4.32 0 0 0 -0.58,1 10.21,10.21 0 0 1 -2.38,2.34 2.63,2.63 0 0 1 -0.61,0.34 1.25,1.25 0 0 1 -0.71,0.07 A 9.14,9.14 0 0 1 36.21,35 1.2,1.2 0 0 1 35.64,33.44 11.69,11.69 0 0 1 36.35,31.27 5,5 0 0 1 38,29.21 8.77,8.77 0 0 1 40,28 1.77,1.77 0 0 1 40.94,27.82 l 0.93,0.26 a 1.34,1.34 0 0 1 0.91,1.12 5.16,5.16 0 0 1 -0.31,2.15 3.76,3.76 0 0 1 -0.35,0.65 z"
         id="path5610"
         style="stroke-width:0.921461" />
      <path
         class="cls-1"
         d="m 42.12,32 a 4.62,4.62 0 0 0 0.76,-2.75 1.49,1.49 0 0 0 -0.7,-1.19 3.26,3.26 0 0 0 -0.68,-0.25 5.12,5.12 0 0 0 -0.7,-0.18 5.38,5.38 0 0 0 -2.6,1.16 6.54,6.54 0 0 0 -1.11,0.92 5.66,5.66 0 0 0 -0.79,1.2 11.43,11.43 0 0 0 -0.93,2.73 1.33,1.33 0 0 0 0.4,1.32 4,4 0 0 0 1.26,0.69 2,2 0 0 0 1.38,0.26 3.54,3.54 0 0 0 1.23,-0.75 9.12,9.12 0 0 0 1.92,-2.16 4.81,4.81 0 0 1 0.56,-1"
         id="path5612"
         style="stroke-width:0.921461" />
      <path
         class="cls-10"
         d="m 41.7,31.34 a 5.08,5.08 0 0 0 0.23,-0.5 3.65,3.65 0 0 0 0.18,-0.68 1.19,1.19 0 0 0 -0.26,-1 1,1 0 0 0 -0.53,-0.37 1.82,1.82 0 0 0 -0.7,0 5.35,5.35 0 0 1 -0.7,0.07 2,2 0 0 0 -0.41,0 1.25,1.25 0 0 0 -0.43,0.17 5.84,5.84 0 0 0 -1.28,1.34 4.06,4.06 0 0 0 -0.59,0.86 3.93,3.93 0 0 0 -0.34,1.07 5,5 0 0 1 -0.22,1 2.32,2.32 0 0 1 -0.27,0.39 0.66,0.66 0 0 0 0,0.69 1.8,1.8 0 0 0 0.86,0.63 1.41,1.41 0 0 0 1,0.18 2.15,2.15 0 0 0 1.28,-1.07 3.48,3.48 0 0 1 0.89,-0.87 2.71,2.71 0 0 0 0.77,-0.73 c 0.14,-0.27 0.24,-0.5 0.33,-0.68 l 0.26,-0.54 -0.32,0.51 -0.4,0.62 a 2.51,2.51 0 0 1 -0.77,0.62 3.69,3.69 0 0 0 -1,0.88 1.93,1.93 0 0 1 -1.09,0.88 1.05,1.05 0 0 1 -0.72,-0.17 1.65,1.65 0 0 1 -0.66,-0.47 c 0,-0.08 0,-0.13 0,-0.24 a 2.28,2.28 0 0 0 0.3,-0.46 5.06,5.06 0 0 0 0.26,-1.09 3.38,3.38 0 0 1 0.81,-1.76 5.86,5.86 0 0 1 1.15,-1.28 0.94,0.94 0 0 1 0.67,-0.17 7,7 0 0 0 0.73,-0.12 1,1 0 0 1 1,0.24 1.53,1.53 0 0 1 0.16,1.49 4.4,4.4 0 0 1 -0.19,0.56 z"
         id="path5614"
         style="stroke-width:0.921461" />
      <path
         class="cls-1"
         d="m 41.7,31.34 a 4.56,4.56 0 0 0 0.3,-1.07 1.18,1.18 0 0 0 -0.29,-1 1.1,1.1 0 0 0 -1,-0.29 5.89,5.89 0 0 1 -1.11,0.12 1.69,1.69 0 0 0 -0.92,0.61 c -0.25,0.27 -0.48,0.57 -0.71,0.87 a 3.89,3.89 0 0 0 -0.61,0.94 4.42,4.42 0 0 0 -0.29,1.08 2.88,2.88 0 0 1 -0.32,1.07 0.93,0.93 0 0 0 -0.27,0.48 0.62,0.62 0 0 0 0.29,0.46 3.09,3.09 0 0 0 1,0.47 1.23,1.23 0 0 0 1,-0.35 8.41,8.41 0 0 0 0.72,-0.86 3.66,3.66 0 0 1 0.86,-0.71 c 0.69,-0.37 0.94,-1.15 1.32,-1.78"
         id="path5616"
         style="stroke-width:0.921461" />
      <path
         class="cls-10"
         d="m 39.43,30.29 -0.71,0.6 a 2.64,2.64 0 0 0 -0.68,1 16.68,16.68 0 0 0 -0.6,1.7 0.28,0.28 0 0 0 0.13,0.38 0.62,0.62 0 0 0 0.31,0.08 1.17,1.17 0 0 0 0.26,0 1.94,1.94 0 0 0 0.94,-0.62 2.88,2.88 0 0 1 1,-0.77 2.35,2.35 0 0 0 0.8,-0.95 4,4 0 0 0 0.39,-1 1.2,1.2 0 0 0 0,-0.5 0.43,0.43 0 0 0 -0.39,-0.33 3,3 0 0 0 -1.14,0.11 1.08,1.08 0 0 0 -0.29,0.26 1.11,1.11 0 0 1 0.32,-0.19 3.22,3.22 0 0 1 1.08,0 c 0.18,0 0.18,0.25 0.1,0.52 a 3.87,3.87 0 0 1 -0.42,0.84 2.08,2.08 0 0 1 -0.69,0.78 3,3 0 0 0 -1.07,0.85 1.69,1.69 0 0 1 -0.72,0.51 H 37.9 v 0 c 0,0 0,0 0,0 a 6.78,6.78 0 0 1 1,-2.67 c 0.34,-0.37 0.53,-0.6 0.53,-0.6 z"
         id="path5618"
         style="stroke-width:0.921461" />
      <path
         class="cls-1"
         d="m 39.43,30.29 a 4.19,4.19 0 0 0 -1.2,1.51 19,19 0 0 0 -0.59,1.85 c 0,0.06 -0.06,0.16 0,0.19 a 0.45,0.45 0 0 0 0.23,0 1.07,1.07 0 0 0 0.44,-0.13 2.27,2.27 0 0 0 0.7,-0.61 c 0.38,-0.51 1.09,-0.62 1.42,-1.18 a 5,5 0 0 0 0.46,-0.81 1.48,1.48 0 0 0 0.18,-0.89 0.32,0.32 0 0 0 -0.36,-0.23 h -0.46 a 0.93,0.93 0 0 0 -0.85,0.28"
         id="path5620"
         style="stroke-width:0.921461" />
      <path
         class="cls-10"
         d="m 39.31,31.28 a 1.81,1.81 0 0 0 -0.39,0.39 c -0.06,0.06 -0.39,0.56 -0.28,0.82 0.11,0.26 0.23,0.18 0.45,0 0.22,-0.18 0.28,-0.2 0.34,-0.25 l 0.22,-0.17 a 2.29,2.29 0 0 0 0.61,-0.85 c 0.1,-0.21 0.08,-0.46 -0.1,-0.53 a 0.49,0.49 0 0 0 -0.45,0.07 1.26,1.26 0 0 0 -0.4,0.47 2.06,2.06 0 0 1 0.5,-0.26 c 0.14,0 0.17,0.06 0.09,0.11 a 3.29,3.29 0 0 1 -0.55,0.66 l -0.18,0.16 c -0.07,0.06 0,0 0,0.05 0,0.05 0,0.06 -0.07,0 -0.07,-0.06 -0.05,-0.06 0,-0.27 0.05,-0.21 0.21,-0.4 0.21,-0.4 z"
         id="path5622"
         style="stroke-width:0.921461" />
      <path
         class="cls-1"
         d="m 39.31,31.28 a 3,3 0 0 0 -0.52,1 c 0,0.07 0,0.23 0.09,0.18 a 0.91,0.91 0 0 0 0.23,-0.15 4.7,4.7 0 0 0 0.43,-0.35 2.07,2.07 0 0 0 0.6,-0.89 0.14,0.14 0 0 0 -0.15,-0.18 0.79,0.79 0 0 0 -0.26,0.08 1.57,1.57 0 0 0 -0.42,0.35"
         id="path5624"
         style="stroke-width:0.921461" />
    </g>
    <path
       class="cls-4"
       d="m 17.62,13.69 a 2.85,2.85 0 0 0 1.75,-0.37 c 0.25,-0.24 0.82,-0.77 1.28,-1.12 a 3.77,3.77 0 0 1 2.2,-0.2 5.51,5.51 0 0 0 2.38,-0.64 1.63,1.63 0 0 1 0.59,-0.17 c 0.25,0 0.4,0.18 0.5,0.44 a 1.9,1.9 0 0 1 -0.16,1.6 2.4,2.4 0 0 1 -1.81,0.65 4.94,4.94 0 0 0 -2.06,0.28 3.35,3.35 0 0 0 -0.71,1.84 c 0.13,0.75 0.72,0.83 0,0.73 A 14.24,14.24 0 0 1 18.44,15 c -0.93,-0.61 -1.53,-1.35 -0.82,-1.31 z"
       id="path5628" />
    <path
       class="cls-14"
       d="m 17.62,13.69 a 2.85,2.85 0 0 0 1.75,-0.37 c 0.25,-0.24 0.82,-0.77 1.28,-1.12 a 3.77,3.77 0 0 1 2.2,-0.2 5.51,5.51 0 0 0 2.38,-0.64 1.63,1.63 0 0 1 0.59,-0.17 c 0.25,0 0.4,0.18 0.5,0.44 a 1.9,1.9 0 0 1 -0.16,1.6 2.4,2.4 0 0 1 -1.81,0.65 4.94,4.94 0 0 0 -2.06,0.28 3.35,3.35 0 0 0 -0.71,1.84 c 0.13,0.75 0.72,0.83 0,0.73 A 14.24,14.24 0 0 1 18.44,15 c -0.93,-0.61 -1.53,-1.35 -0.82,-1.31 z"
       id="path5630"
       style="fill:url(#linear-gradient-5);stroke-width:0.921461" />
    <path
       class="cls-15"
       d="m 26.29,13 a 0.64,0.64 0 0 1 -0.14,0.22 2.35,2.35 0 0 1 -1.8,0.65 5,5 0 0 0 -2.07,0.28 3.4,3.4 0 0 0 -0.7,1.87 c 0.13,0.75 0.71,0.84 0,0.73 A 10.4,10.4 0 0 1 19,15.34 8.5,8.5 0 0 0 20.19,14.41 4.17,4.17 0 0 1 22,13.34 c 0.37,0 2.54,-0.59 2.54,-0.59 l 1.39,-0.13 z"
       id="path5632"
       style="fill:url(#linear-gradient-6);stroke-width:0.921461" />
    <g
       class="cls-9"
       id="g5638"
       style="stroke-width:0.921461">
      <path
         class="cls-10"
         d="m 22.18,13.2 h 0.43 a 7.58,7.58 0 0 0 1.27,-0.09 3.16,3.16 0 0 0 1.25,-0.43 1.13,1.13 0 0 0 0.33,-0.33 1.64,1.64 0 0 1 -0.39,0.22 5.3,5.3 0 0 1 -1.23,0.32 L 22.6,13.1 Z"
         id="path5634"
         style="stroke-width:0.921461" />
      <path
         class="cls-1"
         d="m 22.18,13.2 c 0.57,-0.07 1.15,-0.09 1.71,-0.19 a 2.89,2.89 0 0 0 1.57,-0.65"
         id="path5636"
         style="stroke-width:0.921461" />
    </g>
    <g
       class="cls-9"
       id="g5648"
       style="stroke-width:0.921461">
      <path
         class="cls-10"
         d="m 22.05,12.62 a 2.45,2.45 0 0 0 -0.51,0 1.64,1.64 0 0 0 -0.65,0.17 2.51,2.51 0 0 0 -0.65,0.65 4.88,4.88 0 0 1 -1,1.07 1.1,1.1 0 0 1 -0.47,0.21 1,1 0 0 0 0.57,0 2.5,2.5 0 0 0 1.21,-1 3.68,3.68 0 0 1 0.5,-0.62 1.85,1.85 0 0 1 0.5,-0.26 z"
         id="path5640"
         style="stroke-width:0.921461" />
      <path
         class="cls-1"
         d="m 22.05,12.62 c -1.6,-0.15 -1.74,2.07 -3.24,2.09"
         id="path5642"
         style="stroke-width:0.921461" />
      <path
         class="cls-10"
         d="m 21.59,13.93 a 2.74,2.74 0 0 0 -0.37,0.21 2.32,2.32 0 0 0 -0.86,1 1,1 0 0 0 0.05,0.88 1.5,1.5 0 0 0 0.44,0.39 1.62,1.62 0 0 0 0.43,0.18 L 21,16.21 a 2.23,2.23 0 0 1 -0.26,-0.41 0.75,0.75 0 0 1 0,-0.53 5.91,5.91 0 0 1 0.6,-1 c 0.18,-0.21 0.25,-0.34 0.25,-0.34 z"
         id="path5644"
         style="stroke-width:0.921461" />
      <path
         class="cls-1"
         d="m 21.59,13.93 a 4,4 0 0 0 -1,1.3 0.8,0.8 0 0 0 0.11,0.79 2.5,2.5 0 0 0 0.62,0.55"
         id="path5646"
         style="stroke-width:0.921461" />
    </g>
    <path
       class="cls-7"
       d="m 26.29,13.48 c -0.36,0.18 -0.8,-0.24 -0.88,-0.82 a 2.26,2.26 0 0 1 0.05,-1 1.66,1.66 0 0 0 -0.31,1.43 c 0.18,0.89 0.55,1.07 0.55,1.07"
       id="path5650"
       style="stroke-width:0.921461" />
    <path
       class="cls-16"
       d="m 25.55,11.34 a 2,2 0 0 0 -0.08,1.72 c 0.23,0.57 0.42,0.52 0.72,0.1 a 1.78,1.78 0 0 0 0.14,-1.55 c -0.16,-0.4 -0.62,-0.56 -0.78,-0.27 z"
       id="path5652"
       style="fill:url(#linear-gradient-7);stroke-width:0.921461" />
    <path
       class="cls-17"
       d="m 25.91,12.16 a 4.8,4.8 0 0 1 2.54,-2.44 c 2.09,-1.05 5,0.87 5,0.87"
       id="path5654" />
    <path
       class="cls-18"
       d="m 27.59,10.21 a 4.83,4.83 0 0 1 1.93,-1.47 4.37,4.37 0 0 1 3.77,0 c 1.16,0.52 2.4,3.06 2.4,3.06 a 7.62,7.62 0 0 0 -2.13,0.48 4,4 0 0 1 -3.67,-0.51 c -1.13,-0.86 -1.53,-1.63 -2.3,-1.56 z"
       id="path5656"
       style="stroke-width:0.921461" />
    <path
       class="cls-19"
       d="M 35.66,11.77 A 8.21,8.21 0 0 0 31.51,9.88 c -2.69,-0.46 -3.82,0.28 -3.82,0.28 v 0 a 5.07,5.07 0 0 1 1.86,-1.39 4.4,4.4 0 0 1 3.77,0 c 1.03,0.48 2.17,2.65 2.34,3 z"
       id="path5658"
       style="fill:url(#linear-gradient-8);stroke-width:0.921461" />
    <path
       class="cls-17"
       d="m 27.59,10.21 a 4.83,4.83 0 0 1 1.93,-1.47 4.37,4.37 0 0 1 3.77,0 c 1.16,0.52 2.4,3.06 2.4,3.06 a 7.62,7.62 0 0 0 -2.13,0.48 4,4 0 0 1 -3.67,-0.51 c -1.13,-0.86 -1.53,-1.63 -2.3,-1.56 z"
       id="path5660" />
    <path
       class="cls-20"
       d="M 34.75,11.15 A 6.9,6.9 0 0 0 31.06,9.48 4.71,4.71 0 0 0 28.37,9.91 c 0,0 4.04,-0.32 6.38,1.24 z"
       id="path5662"
       style="stroke-width:0.921461" />
    <path
       class="cls-7"
       d="m 35.76,27.37 a 8.57,8.57 0 0 1 0.79,-0.61 7.18,7.18 0 0 1 2.63,-1.22 6.68,6.68 0 0 1 3,0 3.15,3.15 0 0 1 0.73,0.3 l 0.23,0.15 a 2.23,2.23 0 0 0 -0.19,-0.21 2.68,2.68 0 0 0 -0.69,-0.46 5.24,5.24 0 0 0 -3.14,-0.18 5.86,5.86 0 0 0 -2.67,1.5 4.44,4.44 0 0 0 -0.69,0.73 z"
       id="path5664"
       style="stroke-width:0.921461" />
    <path
       class="cls-1"
       d="m 35.76,27.37 a 6.63,6.63 0 0 1 3.45,-2.07 7.3,7.3 0 0 1 2,-0.11 3.09,3.09 0 0 1 1.89,0.81"
       id="path5666"
       style="stroke-width:0.921461" />
    <path
       class="cls-7"
       d="m 33.45,31.43 c 0,0 -0.13,0.37 -0.32,1.12 a 5.87,5.87 0 0 0 0.2,3.53 3.34,3.34 0 0 0 1.32,1.69 4.79,4.79 0 0 0 1.43,0.62 4.15,4.15 0 0 0 1.26,0.14 6.29,6.29 0 0 1 -1.18,-0.37 3.9,3.9 0 0 1 -2.42,-2.24 6.78,6.78 0 0 1 -0.4,-3.33 z"
       id="path5668"
       style="stroke-width:0.921461" />
    <path
       class="cls-1"
       d="m 33.45,31.43 a 13.3,13.3 0 0 0 -0.33,2.35 5.65,5.65 0 0 0 0.45,2.3 3.32,3.32 0 0 0 1.53,1.75 5.75,5.75 0 0 0 2.24,0.7"
       id="path5670"
       style="stroke-width:0.921461" />
    <path
       class="cls-7"
       d="m 40,37.67 v -0.8 l 0.29,0.6"
       id="path5672"
       style="stroke-width:0.921461" />
    <path
       class="cls-10"
       d="m 35.12,29.89 a 5.12,5.12 0 0 0 -1.25,-1.16 c -0.34,-0.18 -0.74,-0.34 -1.21,-0.55 -0.93,-0.4 -1.69,-0.62 -2.14,-0.82 L 29.79,27 a 5.6,5.6 0 0 0 0.66,0.48 17.81,17.81 0 0 0 2.11,1 c 0.45,0.19 0.87,0.33 1.19,0.47 a 6,6 0 0 1 0.78,0.49 z"
       id="path5674"
       style="stroke-width:0.921461" />
    <path
       class="cls-1"
       d="m 35.12,29.89 a 6.78,6.78 0 0 0 -1.17,-1 12.35,12.35 0 0 0 -1.4,-0.61 A 16.5,16.5 0 0 1 29.79,27"
       id="path5676"
       style="stroke-width:0.921461" />
    <path
       class="cls-7"
       d="M 26.6,31.42 A 53.91,53.91 0 0 1 21.28,29.67 21.79,21.79 0 0 1 17,26.34 l -2.19,-2.06 5.59,3.57 z"
       id="path5678"
       style="stroke-width:0.921461" />
    <path
       class="cls-7"
       d="m 14.8,25.21 c 0,0 -3,-0.66 -3,-0.93 0,-0.27 -3,-2.15 -3.13,-2.22 -0.13,-0.07 -4.37,-2 -4.49,-2 -0.12,0 -0.86,-1.53 -0.86,-1.53 v -1.54 l 1.24,2.23 4.18,2.39 4.5,2.65 z"
       id="path5680"
       style="stroke-width:0.921461" />
    <path
       class="cls-21"
       d="m 28.9,10.31 c 0.54,0.26 1.27,1.46 2.76,1.63 1.49,0.17 2.25,-0.61 3.25,-0.49 A 9.1,9.1 0 0 0 31.1,10.22 C 28.88,10 28.9,10.31 28.9,10.31 Z"
       id="path5682"
       style="fill:url(#linear-gradient-9);stroke-width:0.921461" />
  </g>
</svg>
