<svg width="40" height="40" viewBox="0 0 40 40" fill="none" xmlns="http://www.w3.org/2000/svg">
<path d="M40 0H0V40H40V0Z" fill="#2857AF"/>
<path d="M16.3168 24.2833C16.5835 24.6666 16.9001 24.8833 17.1668 24.8666C17.4835 24.85 17.8335 24.5333 18.1002 24.05C18.9502 22.4666 19.5001 20.9166 20.0335 19.4333C20.7835 17.3333 21.5502 15.1666 23.1002 13.1166C24.7335 10.9833 27.3168 10.15 28.2668 9.91663C28.4168 9.88329 28.4502 9.69996 28.3335 9.59996C26.0335 7.76663 23.1502 6.66663 20.0002 6.66663C18.4502 6.66663 16.9668 6.93329 15.5835 7.41663C13.8835 8.01663 12.7335 9.61663 12.6835 11.4166C12.6335 14.9166 13.1835 19.9 16.3168 24.2833Z" fill="white"/>
<path d="M28.7168 13C27.3002 13.1833 26.2502 14.2 25.6335 15.0166C24.3835 16.6833 23.7502 18.4333 23.0168 20.4833C22.4335 22.0833 21.8502 23.75 20.8835 25.55C20.0835 27.0333 18.8002 28.55 17.3668 28.65C17.2835 28.65 17.2168 28.65 17.1335 28.65C15.8335 28.65 14.5835 27.35 13.7168 26.1166C10.5002 21.6 9.60016 16.6666 9.50016 12.85C9.50016 12.5 9.05016 12.3833 8.85016 12.6666C6.95016 15.4333 6.06683 19.3 7.05016 23.2C8.30016 28.1833 12.3335 31.9333 16.9668 32.9666C25.6335 34.9166 33.3168 28.3166 33.3168 19.9666C33.3168 18.2833 33.0002 16.6833 32.4335 15.2C32.0168 14.1166 31.1002 13.2833 29.9668 13.0333C29.5668 12.9666 29.1335 12.95 28.7168 13Z" fill="white"/>
</svg>
