<?xml version="1.0" encoding="UTF-8" standalone="no"?>
<!DOCTYPE svg PUBLIC "-//W3C//DTD SVG 1.1//EN" "http://www.w3.org/Graphics/SVG/1.1/DTD/svg11.dtd">
<svg width="100%" height="100%" viewBox="0 0 16 16" version="1.1" xmlns="http://www.w3.org/2000/svg" xmlns:xlink="http://www.w3.org/1999/xlink" xml:space="preserve" xmlns:serif="http://www.serif.com/" style="fill-rule:evenodd;clip-rule:evenodd;stroke-linejoin:round;stroke-miterlimit:2;">
    <g id="Layer1">
        <g transform="matrix(0.799653,0,0,0.799653,-2.31339,5.17921)">
            <path d="M3.814,5.244L4.857,5.08C4.915,5.498 5.079,5.818 5.346,6.041C5.614,6.264 5.988,6.375 6.468,6.375C6.953,6.375 7.312,6.276 7.546,6.079C7.781,5.882 7.898,5.651 7.898,5.385C7.898,5.147 7.794,4.959 7.587,4.822C7.443,4.729 7.083,4.609 6.509,4.465C5.736,4.27 5.2,4.101 4.901,3.958C4.602,3.816 4.375,3.618 4.221,3.366C4.067,3.114 3.99,2.836 3.99,2.531C3.99,2.254 4.053,1.997 4.18,1.761C4.307,1.525 4.48,1.328 4.699,1.172C4.863,1.051 5.086,0.948 5.37,0.864C5.653,0.78 5.956,0.738 6.281,0.738C6.769,0.738 7.198,0.809 7.567,0.949C7.936,1.09 8.208,1.28 8.384,1.521C8.56,1.761 8.681,2.082 8.747,2.484L7.716,2.625C7.669,2.305 7.534,2.055 7.309,1.875C7.084,1.695 6.767,1.606 6.357,1.606C5.872,1.606 5.527,1.686 5.32,1.846C5.113,2.006 5.009,2.193 5.009,2.408C5.009,2.545 5.052,2.668 5.138,2.777C5.224,2.891 5.359,2.984 5.542,3.059C5.648,3.098 5.958,3.188 6.474,3.328C7.22,3.527 7.741,3.691 8.036,3.818C8.33,3.944 8.562,4.129 8.73,4.371C8.898,4.613 8.982,4.914 8.982,5.274C8.982,5.625 8.879,5.956 8.674,6.267C8.469,6.577 8.173,6.818 7.787,6.987C7.4,7.157 6.962,7.242 6.474,7.242C5.665,7.242 5.049,7.074 4.625,6.738C4.202,6.402 3.931,5.904 3.814,5.244Z" style="fill:rgb(0,128,255);fill-rule:nonzero;stroke:white;stroke-opacity:0.83;stroke-width:2.23px;"/>
            <path d="M14.496,5.098L15.585,5.233C15.413,5.869 15.095,6.363 14.63,6.715C14.165,7.067 13.572,7.242 12.849,7.242C11.939,7.242 11.217,6.962 10.684,6.401C10.151,5.841 9.884,5.055 9.884,4.043C9.884,2.996 10.154,2.184 10.693,1.606C11.232,1.027 11.931,0.738 12.79,0.738C13.622,0.738 14.302,1.022 14.83,1.588C15.357,2.154 15.621,2.951 15.621,3.979C15.621,4.041 15.619,4.135 15.615,4.26L10.974,4.26C11.013,4.943 11.206,5.467 11.554,5.83C11.902,6.193 12.335,6.375 12.855,6.375C13.242,6.375 13.572,6.274 13.845,6.07C14.119,5.867 14.335,5.543 14.496,5.098ZM11.033,3.393L14.507,3.393C14.46,2.869 14.328,2.477 14.109,2.215C13.773,1.809 13.337,1.606 12.802,1.606C12.318,1.606 11.911,1.768 11.58,2.092C11.25,2.416 11.068,2.85 11.033,3.393Z" style="fill:rgb(0,128,255);fill-rule:nonzero;stroke:white;stroke-opacity:0.83;stroke-width:2.23px;"/>
            <path d="M20.876,9.486L20.876,6.44C20.712,6.67 20.483,6.861 20.188,7.014C19.893,7.166 19.58,7.242 19.247,7.242C18.509,7.242 17.873,6.947 17.34,6.358C16.807,5.768 16.54,4.959 16.54,3.932C16.54,3.307 16.649,2.746 16.866,2.25C17.082,1.754 17.397,1.378 17.809,1.122C18.221,0.866 18.673,0.738 19.165,0.738C19.935,0.738 20.54,1.063 20.982,1.711L20.982,0.879L21.931,0.879L21.931,9.486L20.876,9.486ZM17.624,3.973C17.624,4.774 17.792,5.374 18.128,5.775C18.464,6.175 18.867,6.375 19.335,6.375C19.785,6.375 20.171,6.185 20.496,5.804C20.82,5.423 20.982,4.844 20.982,4.067C20.982,3.238 20.811,2.615 20.469,2.197C20.127,1.779 19.726,1.57 19.265,1.57C18.808,1.57 18.42,1.765 18.102,2.153C17.784,2.542 17.624,3.149 17.624,3.973Z" style="fill:rgb(0,128,255);fill-rule:nonzero;stroke:white;stroke-opacity:0.83;stroke-width:2.23px;"/>
        </g>
        <g transform="matrix(0.799653,0,0,0.799653,-2.31339,5.17921)">
            <path d="M3.814,5.244L4.857,5.08C4.915,5.498 5.079,5.818 5.346,6.041C5.614,6.264 5.988,6.375 6.468,6.375C6.953,6.375 7.312,6.276 7.546,6.079C7.781,5.882 7.898,5.651 7.898,5.385C7.898,5.147 7.794,4.959 7.587,4.822C7.443,4.729 7.083,4.609 6.509,4.465C5.736,4.27 5.2,4.101 4.901,3.958C4.602,3.816 4.375,3.618 4.221,3.366C4.067,3.114 3.99,2.836 3.99,2.531C3.99,2.254 4.053,1.997 4.18,1.761C4.307,1.525 4.48,1.328 4.699,1.172C4.863,1.051 5.086,0.948 5.37,0.864C5.653,0.78 5.956,0.738 6.281,0.738C6.769,0.738 7.198,0.809 7.567,0.949C7.936,1.09 8.208,1.28 8.384,1.521C8.56,1.761 8.681,2.082 8.747,2.484L7.716,2.625C7.669,2.305 7.534,2.055 7.309,1.875C7.084,1.695 6.767,1.606 6.357,1.606C5.872,1.606 5.527,1.686 5.32,1.846C5.113,2.006 5.009,2.193 5.009,2.408C5.009,2.545 5.052,2.668 5.138,2.777C5.224,2.891 5.359,2.984 5.542,3.059C5.648,3.098 5.958,3.188 6.474,3.328C7.22,3.527 7.741,3.691 8.036,3.818C8.33,3.944 8.562,4.129 8.73,4.371C8.898,4.613 8.982,4.914 8.982,5.274C8.982,5.625 8.879,5.956 8.674,6.267C8.469,6.577 8.173,6.818 7.787,6.987C7.4,7.157 6.962,7.242 6.474,7.242C5.665,7.242 5.049,7.074 4.625,6.738C4.202,6.402 3.931,5.904 3.814,5.244Z" style="fill-rule:nonzero;"/>
            <path d="M14.496,5.098L15.585,5.233C15.413,5.869 15.095,6.363 14.63,6.715C14.165,7.067 13.572,7.242 12.849,7.242C11.939,7.242 11.217,6.962 10.684,6.401C10.151,5.841 9.884,5.055 9.884,4.043C9.884,2.996 10.154,2.184 10.693,1.606C11.232,1.027 11.931,0.738 12.79,0.738C13.622,0.738 14.302,1.022 14.83,1.588C15.357,2.154 15.621,2.951 15.621,3.979C15.621,4.041 15.619,4.135 15.615,4.26L10.974,4.26C11.013,4.943 11.206,5.467 11.554,5.83C11.902,6.193 12.335,6.375 12.855,6.375C13.242,6.375 13.572,6.274 13.845,6.07C14.119,5.867 14.335,5.543 14.496,5.098ZM11.033,3.393L14.507,3.393C14.46,2.869 14.328,2.477 14.109,2.215C13.773,1.809 13.337,1.606 12.802,1.606C12.318,1.606 11.911,1.768 11.58,2.092C11.25,2.416 11.068,2.85 11.033,3.393Z" style="fill-rule:nonzero;"/>
            <path d="M20.876,9.486L20.876,6.44C20.712,6.67 20.483,6.861 20.188,7.014C19.893,7.166 19.58,7.242 19.247,7.242C18.509,7.242 17.873,6.947 17.34,6.358C16.807,5.768 16.54,4.959 16.54,3.932C16.54,3.307 16.649,2.746 16.866,2.25C17.082,1.754 17.397,1.378 17.809,1.122C18.221,0.866 18.673,0.738 19.165,0.738C19.935,0.738 20.54,1.063 20.982,1.711L20.982,0.879L21.931,0.879L21.931,9.486L20.876,9.486ZM17.624,3.973C17.624,4.774 17.792,5.374 18.128,5.775C18.464,6.175 18.867,6.375 19.335,6.375C19.785,6.375 20.171,6.185 20.496,5.804C20.82,5.423 20.982,4.844 20.982,4.067C20.982,3.238 20.811,2.615 20.469,2.197C20.127,1.779 19.726,1.57 19.265,1.57C18.808,1.57 18.42,1.765 18.102,2.153C17.784,2.542 17.624,3.149 17.624,3.973Z" style="fill-rule:nonzero;"/>
        </g>
    </g>
</svg>
