<?xml version="1.0" encoding="UTF-8" standalone="no"?>
<!DOCTYPE svg PUBLIC "-//W3C//DTD SVG 1.1//EN" "http://www.w3.org/Graphics/SVG/1.1/DTD/svg11.dtd">
<svg width="100%" height="100%" viewBox="0 0 16 16" version="1.1" xmlns="http://www.w3.org/2000/svg" xmlns:xlink="http://www.w3.org/1999/xlink" xml:space="preserve" xmlns:serif="http://www.serif.com/" style="fill-rule:evenodd;clip-rule:evenodd;stroke-linejoin:round;stroke-miterlimit:2;">
    <g id="Clock" transform="matrix(0.565521,4.18254e-32,-6.9709e-33,0.565521,-109.065,0.652098)">
        <path d="M207.876,15.14L200.733,15.14C200.341,15.14 200.024,14.823 200.024,14.43C200.024,14.038 200.341,13.72 200.733,13.72L206.456,13.72L206.456,4.986C206.456,4.595 206.773,4.276 207.166,4.276C207.558,4.276 207.876,4.595 207.876,4.986L207.876,15.14ZM206.999,0.499C200.096,0.499 194.5,6.096 194.5,12.999C194.5,19.902 200.096,25.5 206.999,25.5C213.903,25.5 219.5,19.902 219.5,12.999C219.5,6.096 213.903,0.499 206.999,0.499Z" style="fill:rgb(0,188,255);"/>
    </g>
    <g transform="matrix(0.130124,1.6039e-33,1.6039e-33,0.130124,-151.883,-181.254)">
        <g id="Layer1">
            <g id="Table-Add" serif:id="Table Add">
                <g transform="matrix(1,6.16298e-32,0,1,1146.2,1332.9)">
                    <circle cx="116.8" cy="88.1" r="22" style="fill:rgb(76,217,100);"/>
                </g>
                <g transform="matrix(1,6.16298e-32,0,1,1146.2,1332.9)">
                    <path d="M127.8,87.1L117.8,87.1L117.8,77.1L115.8,77.1L115.8,87.1L105.8,87.1L105.8,89.1L115.8,89.1L115.8,99.1L117.8,99.1L117.8,89.1L127.8,89.1L127.8,87.1Z" style="fill:white;fill-rule:nonzero;"/>
                </g>
            </g>
        </g>
    </g>
</svg>
